<svg width="301" height="161" fill="none" xmlns="http://www.w3.org/2000/svg"><path fill-rule="evenodd" clip-rule="evenodd" d="M219.664 107.824c-2.944 0-4.6-7.912-4.6-17.296 0-13.984 3.68-31.464 12.144-31.464 1.84 0 3.864.552 5.888 1.84l.215-.55c-3.299 37.872-11.322 47.47-13.647 47.47ZM169.065 86.48c.184-11.04 4.784-24.472 9.751-30.544 3.517 4.044 5.352 31.77-8.937 38.244-.643-2.988-.872-5.808-.814-7.7Zm6.44-42.136a50.936 50.936 0 0 0 2.553 4.982 19.66 19.66 0 0 0-3.677.48l-1.821-5.462h2.945Zm108.742-29.071c5.507 17.896.552 46.252-13.659 59.182.892-20.153 5.992-44.348 13.659-59.182Zm-5.888 92.551c-5.036 0-7.786-11.957-7.907-26.243 19.25-8.292 29.803-34.534 29.803-53.797 0-16.007-6.256-21.895-14.904-21.895-17.848 0-30.544 39.008-30.544 71.023 0 6.968.606 13.587 1.897 19.384-2.043 7.362-4.362 11.528-6.68 11.528-3.129 0-4.784-5.153-4.784-12.88 0-11.96 2.759-30.176 5.52-42.872l-16.56-4.968a373.04 373.04 0 0 1-.5 8.339c-3.029-3.157-8.158-5.763-12.564-5.763-13.8 0-21.895 20.976-21.895 39.744l.003.65c-2.905 8.521-10.134 18.117-17.668 18.117-5.073 0-8.275-4.079-10.17-8.879 16.261-3.157 24.706-17.405 24.706-30.496 0-10.47-5.131-18.622-15.549-19.436-.94-1.804-1.967-3.849-2.666-5.404 13.872-2.19 20.096-17.129 24.925-28.72 1.256-3.014 2.417-5.8 3.594-8.08l2.944-3.127h-3.128l.552-4.048-3.68 1.288C202 .369 200.16.185 198.32.185c-4.6 0-9.016 3.128-10.488 8.648-2.759 2.76-20.607 6.072-38.271 8.832-2.982 0-7.259-.544-11.736-1.112-4.917-.625-10.075-1.28-14.023-1.28-1.473 0-1.657.92-.552 1.84 2.687 2.389 7.366 3.324 11.62 4.174 3.61.721 6.915 1.382 8.435 2.818 7.544 8.648 16.744 17.847 26.496 19.871.6 1.95 1.444 4.51 2.632 6.387-12.442 4.271-19.058 20.854-19.376 35.933-.368 16.743 7.544 31.647 22.08 31.647 13.545 0 21.551-10.299 25.316-16.575 2.05 9.263 6.78 16.207 14.795 16.207 9.568 0 13.984-9.568 16.376-16.376 1.472 10.488 7.544 16.376 14.168 16.376 6.636 0 11.139-5.014 13.998-11.824 3.361 7.273 8.526 11.824 15.809 11.824 16.56 0 20.976-24.655 23.92-43.423l-5.52-1.104c-5.336 24.104-10.856 34.776-15.64 34.776Zm-198.9-58.326c1.104 38.087 1.472 58.879-4.785 58.879-8.708 0-7.966-41-7.762-52.253v-.002c.02-1.11.035-1.93.035-2.393L49.1 49.498c-.038.828-.098 1.87-.17 3.092-.453 7.85-1.337 23.14.416 36.98-3.789 9.407-9.087 18.807-15.517 18.807-8.464 0-12.329-17.112-12.697-36.8-.367-21.527 3.68-45.999 11.224-53.543 3.496 5.888 6.072 28.52 6.072 32.936 20.24-2.576 16.928-42.504-5.151-42.504-19.137 0-33.856 32.2-33.304 62.376.368 23.919 9.2 47.287 30.36 47.287 10.857 0 17.277-8.085 21.328-16.932 2.858 9.769 7.982 16.932 16.943 16.932 8.28 0 12.696-5.152 15.088-10.672-1.289 13.063-4.784 36.799-12.88 46.735-4.416-7.543-7.544-18.4-9.2-29.991-5.888-.552-10.856 6.808-10.856 16.008 0 9.567 5.888 18.951 16.56 20.607.92.184 1.84.184 2.944.184 31.096 0 29.807-76.175 27.6-107.27l-18.4-4.232Zm42.318 4.232.26 21.444c5.583-15.465 15.313-29.43 31.388-23.284-2.576 8.648-5.704 19.687-6.256 36.431-12.636-.877-12.718-15.313-11.421-26.224l-.494.885c-6.72 12.02-12.831 22.954-13.293 56.619l-14.903-3.864c.919-22.448-.552-50.231-2.945-66.24l17.664 4.233Z" fill="#231F20"/></svg>